<svg width="205" height="84" viewBox="0 0 205 84" fill="none" xmlns="http://www.w3.org/2000/svg">
<path d="M21.1414 38.354V71.3181L36.4521 62.1316V46.0938L21.1414 38.354Z" fill="url(#paint0_linear_211_21736)"/>
<path d="M21.1414 9.18647V25.8117L15.3108 29.6082L0 21.8683V84L15.3108 74.8135V42.1505L21.1414 38.3541L36.4521 46.0939V0L21.1414 9.18647Z" fill="#FFE600"/>
<path d="M0 21.8684L15.3108 29.6082V12.6672L0 21.8684Z" fill="url(#paint1_linear_211_21736)"/>
<path d="M63.3947 51.0506V43.1345H52.8717V51.0506H51.4031V34.396H52.8717V41.8568H63.3947V34.396H64.8119V51.0506H63.3947Z" fill="white"/>
<path d="M73.9543 51.0506V34.396H75.3789V51.0506H73.9543Z" fill="white"/>
<path d="M96.4249 51.0506L85.9166 36.7165V51.0506H84.492V34.396H85.9607L96.3955 48.5025V34.396H97.8201V51.0506H96.4249Z" fill="white"/>
<path d="M106.963 51.0505V34.3959H112.279C113.391 34.3488 114.5 34.5317 115.537 34.9333C116.575 35.3349 117.518 35.9464 118.308 36.7296C119.098 37.5128 119.718 38.4507 120.129 39.4846C120.539 40.5185 120.732 41.6261 120.694 42.7379C120.694 47.3569 117.449 51.0505 112.279 51.0505H106.963ZM119.196 42.7379C119.196 38.8386 116.7 35.6957 112.279 35.6957H108.387V49.7508H112.279C116.67 49.7508 119.196 46.6299 119.196 42.7379Z" fill="white"/>
<path d="M128.309 48.7008L129.242 47.6287C129.887 48.3837 130.688 48.991 131.589 49.4092C132.489 49.8273 133.47 50.0465 134.463 50.0519C137.856 50.0519 138.832 48.15 138.832 46.7328C138.832 41.8348 128.846 44.3829 128.846 38.567C128.846 35.8427 131.291 34.1243 134.316 34.1243C135.371 34.0748 136.423 34.2592 137.398 34.6641C138.373 35.0691 139.247 35.6847 139.956 36.4668L139.009 37.5169C138.423 36.829 137.69 36.2826 136.863 35.9189C136.036 35.5551 135.138 35.3835 134.235 35.4167C132.033 35.4167 130.344 36.6945 130.344 38.4936C130.344 42.76 140.33 40.4102 140.33 46.63C140.33 48.7742 138.906 51.3444 134.412 51.3444C133.262 51.3854 132.118 51.1694 131.062 50.7121C130.006 50.2548 129.066 49.5676 128.309 48.7008Z" fill="white"/>
<path d="M148.731 51.0506V34.396H150.156V51.0506H148.731Z" fill="white"/>
<path d="M163.535 51.0506V35.6958H158.094V34.396H170.423V35.6958H164.982V51.0506H163.535Z" fill="white"/>
<path d="M178.369 51.0506V34.396H188.928V35.6958H179.786V41.8568H188.723V43.1492H179.786V49.7582H188.928V51.0579L178.369 51.0506Z" fill="white"/>
<path d="M192.74 50.9845V47.0706H193.577V50.9845H192.74Z" fill="white"/>
<path d="M197.344 50.9845L195.479 48.4658V51.0213H194.641V47.0706H195.501L197.314 49.5306V47.0706H198.144V50.9845H197.344Z" fill="white"/>
<path d="M199.216 50.9845V47.0706H200.766C201.033 47.0542 201.3 47.0927 201.552 47.1836C201.804 47.2746 202.034 47.4161 202.229 47.5994C202.424 47.7827 202.579 48.004 202.685 48.2496C202.792 48.4952 202.846 48.76 202.846 49.0276C202.846 49.2951 202.792 49.5599 202.685 49.8055C202.579 50.0511 202.424 50.2724 202.229 50.4557C202.034 50.6391 201.804 50.7805 201.552 50.8715C201.3 50.9624 201.033 51.0009 200.766 50.9845H199.216ZM201.992 49.0239C202.004 48.8607 201.981 48.6969 201.924 48.5435C201.867 48.3901 201.778 48.2509 201.662 48.1352C201.546 48.0195 201.407 47.9301 201.254 47.8731C201.1 47.8161 200.936 47.7928 200.773 47.8049H200.039V50.2502H200.773C200.936 50.2565 201.097 50.229 201.249 50.1695C201.4 50.1099 201.537 50.0197 201.652 49.9045C201.766 49.7892 201.856 49.6514 201.914 49.4999C201.973 49.3483 201.999 49.1862 201.992 49.0239V49.0239Z" fill="white"/>
<path d="M203.475 50.5733C203.475 50.4789 203.503 50.3866 203.556 50.3081C203.608 50.2296 203.683 50.1684 203.77 50.1323C203.857 50.0962 203.953 50.0867 204.046 50.1051C204.138 50.1235 204.224 50.169 204.29 50.2357C204.357 50.3025 204.403 50.3876 204.421 50.4801C204.439 50.5727 204.43 50.6687 204.394 50.7559C204.358 50.8431 204.296 50.9177 204.218 50.9701C204.139 51.0226 204.047 51.0506 203.953 51.0506C203.827 51.0487 203.706 50.9978 203.617 50.9087C203.528 50.8196 203.477 50.6993 203.475 50.5733V50.5733Z" fill="white"/>
<defs>
<linearGradient id="paint0_linear_211_21736" x1="27.229" y1="51.8069" x2="19.4744" y2="59.5615" gradientUnits="userSpaceOnUse">
<stop stop-color="#ECD100"/>
<stop offset="1" stop-color="#FFE600"/>
</linearGradient>
<linearGradient id="paint1_linear_211_21736" x1="5.76449" y1="27.6329" x2="18.0205" y2="15.3769" gradientUnits="userSpaceOnUse">
<stop stop-color="#ECD100"/>
<stop offset="0.47" stop-color="#F7DD00"/>
<stop offset="1" stop-color="#FFE600"/>
</linearGradient>
</defs>
</svg>
